<svg width="167" height="37" viewBox="0 0 167 37" fill="none" xmlns="http://www.w3.org/2000/svg">
<rect width="167" height="37" fill="white"/>
<rect x="0.75" y="0.375" width="7.75" height="36.25" fill="#111010"/>
<rect x="15" y="0.375" width="7.75" height="36.25" fill="#111010"/>
<rect x="41" y="11.75" width="7.75" height="24.875" fill="#111010"/>
<rect x="52.75" y="11.75" width="7.75" height="24.875" fill="#111010"/>
<rect x="67" y="11.75" width="7.75" height="24.875" fill="#111010"/>
<rect x="52.75" y="19.875" width="8.125" height="22" transform="rotate(-90 52.75 19.875)" fill="#111010"/>
<rect x="78.75" y="19.875" width="8.125" height="22" transform="rotate(-90 78.75 19.875)" fill="#111010"/>
<rect x="104.75" y="19.75" width="8" height="8" transform="rotate(-90 104.75 19.75)" fill="#111010"/>
<rect x="112.75" y="27.875" width="8" height="8" transform="rotate(-90 112.75 27.875)" fill="#111010"/>
<rect x="120.75" y="19.875" width="8" height="8" transform="rotate(-90 120.75 19.875)" fill="#111010"/>
<rect x="154.25" y="15.875" width="15.5" height="12.5" transform="rotate(-90 154.25 15.875)" fill="#111010"/>
<rect x="134" y="36.625" width="15.5" height="12.5" transform="rotate(-90 134 36.625)" fill="#111010"/>
<rect x="40.75" y="8.125" width="8" height="8" transform="rotate(-90 40.75 8.125)" fill="#111010"/>
<rect x="104.75" y="36.25" width="8" height="8" transform="rotate(-90 104.75 36.25)" fill="#111010"/>
<rect x="120.75" y="35.875" width="8" height="8" transform="rotate(-90 120.75 35.875)" fill="#111010"/>
<rect x="0.75" y="8.125" width="7.75" height="36.25" transform="rotate(-90 0.75 8.125)" fill="#111010"/>
<rect x="29.25" y="0.375" width="7.75" height="36.25" fill="#111010"/>
<rect x="146.5" y="0.375" width="7.75" height="36.25" fill="#111010"/>
<rect x="85.875" y="0.375" width="7.75" height="36.25" fill="#111010"/>
</svg>
